<?xml version="1.0" encoding="UTF-8" standalone="no"?>
<!-- Created with Inkscape (http://www.inkscape.org/) -->

<svg
   width="210mm"
   height="297mm"
   viewBox="0 0 210 297"
   version="1.1"
   id="svg1"
   inkscape:export-filename="newLOGO.png"
   inkscape:export-xdpi="96"
   inkscape:export-ydpi="96"
   xmlns:inkscape="http://www.inkscape.org/namespaces/inkscape"
   xmlns:sodipodi="http://sodipodi.sourceforge.net/DTD/sodipodi-0.dtd"
   xmlns="http://www.w3.org/2000/svg"
   xmlns:svg="http://www.w3.org/2000/svg">
  <sodipodi:namedview
     id="namedview1"
     pagecolor="#ffffff"
     bordercolor="#000000"
     borderopacity="0.25"
     inkscape:showpageshadow="2"
     inkscape:pageopacity="0.0"
     inkscape:pagecheckerboard="0"
     inkscape:deskcolor="#d1d1d1"
     inkscape:document-units="mm">
    <inkscape:page
       x="0"
       y="0"
       width="210"
       height="297"
       id="page2"
       margin="0"
       bleed="0" />
  </sodipodi:namedview>
  <defs
     id="defs1" />
  <g
     inkscape:label="Layer 1"
     inkscape:groupmode="layer"
     id="layer1">
    <path
       d="m 81.791249,128.56661 q 0.325542,-0.004 0.463121,0.0298 0.06761,0.0155 0.06834,0.0806 0.0019,0.17207 -0.01521,0.51645 -0.01479,0.34435 -0.01288,0.51642 0.0018,0.16277 0.01236,0.48591 0.01056,0.32314 0.01236,0.48591 6.44e-4,0.0581 -0.05749,0.0588 -0.253458,0.003 -0.765203,-0.008 -0.511772,-0.0129 -0.767554,-0.0101 -0.269735,0.003 -0.806595,0.0345 -0.539211,0.0292 -0.808946,0.0322 -0.05116,5.7e-4 -0.0518,-0.0576 -4.64e-4,-0.0419 0.0056,-0.12797 0.006,-0.0861 0.0055,-0.13029 -4.63e-4,-0.0419 -0.0084,-0.13014 -0.008,-0.0883 -0.0084,-0.13014 -6.18e-4,-0.0558 0.04356,-0.0563 0.246482,-0.003 0.741976,0.0104 0.495494,0.0131 0.744301,0.0104 0.120915,-0.001 0.367397,-0.004 0.246507,-4.1e-4 0.367422,-0.002 0.516216,-0.006 0.515753,-0.0476 -0.0095,-0.85804 -0.0562,-1.29473 -0.0026,-0.0209 -0.01746,-0.10678 -0.01472,-0.0696 -0.01514,-0.10681 -5.41e-4,-0.0488 0.04364,-0.0493 z m -0.482716,-3.15921 q 0.0086,0.003 0.03625,0.0221 0.460479,0.28243 0.818751,0.42615 0.02158,0.009 0.990706,0.33477 l 0.03108,0.01 q 0.06346,0.023 0.03921,0.0834 -0.02338,0.0583 -0.05891,0.18433 -0.03251,0.12477 -0.05589,0.18304 -0.01645,0.041 -0.176186,0.002 -0.159737,-0.039 -0.167528,-0.0196 -0.0052,0.0129 0.03742,0.15031 0.05252,0.1689 0.06232,0.30061 0.01793,0.20514 -0.05046,0.37564 -0.167959,0.4187 -0.617637,0.57156 -0.42851,0.14381 -0.853689,-0.0267 -0.479135,-0.1922 -0.682132,-0.59183 -0.210751,-0.41778 -0.02288,-0.88613 0.132462,-0.33021 0.459936,-0.48448 0.05788,-0.0194 0.171065,-0.0642 0.0091,-0.004 0.01167,-0.0104 0.0052,-0.0129 -0.121253,-0.0912 -0.126447,-0.0783 -0.111729,-0.11498 0.02338,-0.0583 0.119816,-0.205 0.109842,-0.16139 0.140058,-0.14927 z m 0.681385,0.91225 q -0.265467,-0.10649 -0.518595,-0.0251 -0.2717,0.0839 -0.375591,0.34293 -0.103892,0.259 0.02972,0.51304 0.12758,0.24411 0.390888,0.34973 0.261151,0.10476 0.5199,0.0156 0.26998,-0.0921 0.373872,-0.35113 0.101295,-0.25252 -0.03535,-0.50527 -0.128019,-0.23677 -0.384853,-0.33979 z m 2.695861,-2.11641 q 0.04113,0.0304 0.01347,0.0678 -0.04564,0.0617 -0.13879,0.18369 -0.09177,0.12013 -0.137408,0.18183 -0.0249,0.0337 -0.07911,-0.006 -0.0916,-0.0678 -0.2744,-0.21168 -0.182796,-0.14391 -0.276269,-0.21307 -0.07478,-0.0553 -0.223849,-0.16271 -0.150939,-0.10877 -0.225717,-0.16409 -0.213119,-0.15767 -0.346623,-0.16098 -0.160012,-0.003 -0.30938,0.19923 -0.06915,0.0935 -0.08755,0.3373 -0.01971,0.25733 0.06629,0.32095 l 1.121674,0.82982 q 0.04674,0.0346 0.02046,0.0701 -0.04426,0.0598 -0.134641,0.17808 -0.09038,0.11827 -0.134641,0.17809 -0.02904,0.0393 -0.07204,0.007 -0.147688,-0.10926 -0.440296,-0.33152 -0.291225,-0.22413 -0.440781,-0.33477 -0.398195,-0.29459 -0.796934,-0.45941 -0.02097,-0.007 -0.02845,-0.0124 -0.01869,-0.0138 -0.0082,-0.0437 0.0078,-0.0145 0.124017,-0.23801 0.115718,-0.2268 0.122633,-0.23614 0.0083,-0.0112 0.04098,0.007 0.122822,0.0764 0.265493,0.12988 -0.0047,-0.15392 -0.0012,-0.39718 0.02557,-0.28481 0.161112,-0.46802 0.260012,-0.35146 0.559212,-0.3297 0.220092,0.0153 0.554725,0.26287 0.05795,0.0429 0.174832,0.13512 0.118262,0.0904 0.178085,0.13465 0.125253,0.0927 0.376657,0.27286 0.251404,0.18021 0.376658,0.27287 z m 0.305192,-3.275 q 0.194509,0.20009 0.581813,0.60518 0.385683,0.40343 0.580192,0.60352 0.385775,0.39685 0.39886,0.7506 0.01609,0.37353 -0.375753,0.75444 -0.378506,0.36795 -0.751345,0.45148 -0.05938,0.0123 -0.07559,-0.004 0.01783,0.0183 -0.189872,-0.29541 -0.02255,-0.0332 -0.0042,-0.051 0.0083,-0.008 0.02978,-0.0127 0.389513,-0.0997 0.641295,-0.34449 0.165076,-0.16047 0.202139,-0.3392 0.04401,-0.20494 -0.109974,-0.36335 -0.03404,-0.035 -0.159035,-0.15025 0.03374,0.40502 -0.251393,0.6822 -0.308475,0.29987 -0.72248,0.27099 -0.397564,-0.0286 -0.700673,-0.34046 -0.307973,-0.31681 -0.340136,-0.71688 -0.03508,-0.42642 0.27673,-0.72953 0.275126,-0.26745 0.642723,-0.21292 0.06072,0.009 0.07239,-0.002 0.01334,-0.013 -0.01584,-0.043 -0.02107,-0.0217 -0.06979,-0.0651 -0.05034,-0.0451 -0.07303,-0.0684 -0.09726,-0.10005 -0.07725,-0.1195 0.01667,-0.0162 0.21088,-0.14338 0.192585,-0.12883 0.214075,-0.13675 0.03145,-0.0144 0.06549,0.0207 z m 0.26763,1.076 q -0.181541,-0.18675 -0.409685,-0.21794 -0.249495,-0.0331 -0.431245,0.14355 -0.180083,0.17506 -0.152403,0.42706 0.02472,0.22893 0.204638,0.41402 0.176679,0.18175 0.408112,0.21298 0.251116,0.0348 0.429531,-0.13864 0.176747,-0.17182 0.150735,-0.42544 -0.023,-0.23384 -0.199683,-0.41559 z m 3.137201,-1.09267 q 0.05236,0.0683 0.01362,0.098 -0.0572,0.0439 -0.174861,0.1312 -0.11766,0.0873 -0.174861,0.13119 -0.04613,0.0354 -0.09283,-0.0255 -0.06793,-0.0886 -0.199681,-0.2718 -0.129902,-0.18464 -0.199251,-0.27505 -0.0651,-0.0849 -0.204106,-0.25082 -0.138572,-0.1692 -0.205091,-0.25592 -0.254751,-0.33213 -0.568429,-0.0915 -0.101484,0.0778 -0.187863,0.30528 -0.09179,0.24332 -0.02244,0.33373 l 0.84068,1.09603 q 0.04104,0.0535 0.0023,0.0832 -0.0572,0.0439 -0.173016,0.12978 -0.115815,0.0859 -0.173015,0.12978 -0.04244,0.0325 -0.08065,-0.0173 l -0.683583,-0.89122 q -0.167004,-0.21773 -0.734461,-0.90787 -0.172109,-0.21674 -0.529549,-0.62544 -0.02067,-0.0193 -0.02633,-0.0267 -0.02406,-0.0314 -0.0076,-0.0557 0.02288,-0.0351 0.200011,-0.171 0.03875,-0.0297 0.106339,-0.10208 0.06617,-0.0742 0.101233,-0.10109 0.02399,-0.0184 0.05088,0.0167 0.133037,0.17344 0.385765,0.5335 0.253158,0.3568 0.386194,0.53024 0.03255,0.0424 0.04873,0.033 0.03325,-0.15152 0.09637,-0.37871 0.09449,-0.25125 0.295616,-0.40552 0.346891,-0.26607 0.63641,-0.1599 0.210157,0.0791 0.462078,0.40756 0.04387,0.0572 0.132177,0.17997 0.08873,0.1195 0.132607,0.1767 0.09058,0.1181 0.27401,0.3496 0.183432,0.23151 0.272595,0.34775 z m 1.415139,-2.29367 q 0.0923,0.14523 -0.0021,0.27413 -0.06444,0.085 -1.141263,0.88789 0.135279,0.15649 0.377472,0.1734 0.230602,0.016 0.411162,-0.0988 0.310092,-0.19708 0.441929,-0.56191 0.01519,-0.0455 0.03037,-0.0909 0.0157,-0.01 0.02212,-0.009 0.0084,1.8e-4 0.161892,0.09 0.152262,0.0878 0.158499,0.0977 0.0075,0.0118 -0.0027,0.0651 -0.09392,0.48953 -0.545321,0.77641 -0.455325,0.28938 -0.898297,0.19068 -0.444219,-0.10068 -0.732352,-0.55404 -0.25695,-0.4043 -0.188727,-0.86922 0.07448,-0.48544 0.470925,-0.7374 0.368971,-0.2345 0.788391,-0.12082 0.408543,0.10957 0.64803,0.48639 z m -0.543188,0.17715 q -0.103528,-0.1629 -0.31289,-0.20618 -0.207398,-0.0445 -0.368332,0.0577 -0.18056,0.11475 -0.229566,0.34979 -0.04704,0.23379 0.06771,0.41435 0.02619,0.0412 0.09685,-0.004 0.290467,-0.18461 0.657344,-0.50044 0.103853,-0.088 0.08889,-0.11159 z m 4.000526,-2.9121 q 0.0084,0.0166 0.03493,1.09804 0.01445,0.37327 0.03297,1.11988 0.0014,0.0697 -0.02763,0.0844 l -0.373393,0.18917 q -0.03941,0.02 -0.09268,-0.0234 -0.336372,-0.28317 -1.017773,-0.91292 0.05024,0.45421 0.129928,1.36273 0.0056,0.0676 -0.03386,0.0875 l -0.371318,0.18812 q -0.03112,0.0158 -0.08646,-0.0266 -0.295523,-0.22827 -0.88762,-0.68689 -0.814492,-0.62488 -0.846021,-0.68712 -0.08618,-0.1701 -0.249214,-0.51763 -0.163036,-0.34753 -0.249215,-0.51763 -0.01892,-0.0373 0.03294,-0.0636 0.03734,-0.0189 0.115171,-0.0505 0.07991,-0.0327 0.117245,-0.0516 0.03526,-0.0179 0.103693,-0.0577 0.06843,-0.0399 0.103693,-0.0578 0.04356,-0.0221 0.05933,0.009 0.08513,0.16802 0.23674,0.51874 0.152636,0.34758 0.237764,0.51561 0.0536,0.10579 0.904572,0.74608 0.281915,0.21171 0.294362,0.2054 0.0031,-0.004 0.003,-0.0198 7.21e-4,-0.0603 -0.02873,-0.31913 -0.05558,-0.48018 -0.158562,-1.0745 -0.02005,-0.055 -0.159828,-0.33091 -0.06201,-0.12239 -0.193266,-0.36089 -0.130236,-0.24163 -0.192243,-0.36402 -0.01576,-0.0311 0.0278,-0.0532 0.03941,-0.02 0.121394,-0.0537 0.08198,-0.0337 0.123468,-0.0547 0.03526,-0.0179 0.102642,-0.0598 0.06738,-0.042 0.102642,-0.0598 0.04771,-0.0242 0.06453,0.009 0.06621,0.13068 0.191384,0.39834 0.124123,0.26558 0.190334,0.39626 0.108248,0.21367 0.133444,0.25825 0.05877,0.10057 0.774605,0.75197 0.07943,0.0745 0.24029,0.20673 0.0063,0.007 0.01565,0.0103 0.01245,-0.006 0.0075,-0.35052 -0.01488,-1.04302 -0.06953,-1.15089 -0.08618,-0.1701 -0.276154,-0.49877 -0.189976,-0.32867 -0.275103,-0.4967 -0.01577,-0.0311 8.3e-4,-0.0395 0.04149,-0.021 0.125543,-0.0558 0.08613,-0.0358 0.127617,-0.0568 0.03734,-0.0189 0.11094,-0.064 0.0736,-0.0451 0.113014,-0.0651 0.04356,-0.0221 0.0624,-3.3e-4 -0.0011,-0.002 0.02943,0.0581 0.08303,0.16388 0.258398,0.48431 0.175372,0.32042 0.258398,0.4843 z m 2.659136,-0.16213 q 0.06472,0.15945 -0.05132,0.26929 -0.07866,0.0721 -1.282169,0.66849 0.104974,0.17824 0.340193,0.23837 0.223977,0.0572 0.422211,-0.0233 0.340445,-0.13818 0.535661,-0.4734 0.02311,-0.042 0.04621,-0.084 0.01724,-0.007 0.0233,-0.004 0.0082,0.002 0.143099,0.1176 0.134012,0.11376 0.138384,0.12453 0.0052,0.0129 -0.01436,0.0636 -0.18031,0.4647 -0.675895,0.66585 -0.499894,0.2029 -0.917935,0.0262 -0.418916,-0.17882 -0.620941,-0.67656 -0.180161,-0.44387 -0.02955,-0.88898 0.160449,-0.46417 0.595701,-0.64083 0.405087,-0.16442 0.797271,0.0227 0.382223,0.18116 0.55014,0.59486 z m -0.566171,0.0767 q -0.07259,-0.17884 -0.270773,-0.25902 -0.196029,-0.0811 -0.372716,-0.009 -0.198233,0.0805 -0.288655,0.30288 -0.08827,0.22154 -0.0078,0.41978 0.01837,0.0452 0.09594,0.0138 0.318898,-0.12944 0.736532,-0.37424 0.117977,-0.068 0.107482,-0.0938 z m 3.161887,-0.84165 q 0.14877,0.43574 -0.01147,0.85166 -0.171081,0.44174 -0.600219,0.58826 -0.286093,0.0977 -0.553553,0.0268 -0.113575,-0.0448 -0.226398,-0.0873 -0.02195,0.0149 0.01207,0.14332 0.03623,0.12769 0.0076,0.13746 l -0.464349,0.15854 q -0.02641,0.009 -0.03618,-0.0196 7.52e-4,0.002 -0.0091,-0.0411 -0.08501,-0.36414 -0.424622,-1.35886 -0.139002,-0.40713 -0.4432,-1.18296 -0.193318,-0.49425 -0.17228,-0.43263 -0.01953,-0.0572 0.03543,-0.0834 0.07847,-0.0293 0.232471,-0.0892 0.03006,-0.0127 0.12018,-0.0582 0.07472,-0.0403 0.123133,-0.0568 0.03521,-0.012 0.05249,0.0386 0.02555,0.0748 0.06714,0.23263 0.04159,0.15781 0.06789,0.23484 0.03907,0.11443 0.10696,0.34926 0.06934,0.23188 0.10841,0.34632 0.02855,0.0836 0.05936,0.0731 0.01541,-0.005 0.02475,-0.0355 0.139141,-0.38415 0.53747,-0.52014 0.455547,-0.15554 0.853699,0.0894 0.373784,0.23114 0.532321,0.69549 z m -0.504123,0.15 q -0.08941,-0.26188 -0.322839,-0.4058 -0.248939,-0.15336 -0.506422,-0.0654 -0.264085,0.0902 -0.368762,0.35934 -0.101832,0.25592 -0.01017,0.52441 0.09317,0.27289 0.330246,0.4131 0.246685,0.14675 0.515171,0.0551 0.259684,-0.0887 0.360658,-0.36149 0.09303,-0.25291 0.0021,-0.5192 z m 3.520412,-1.53037 q 0.17101,0.63068 -0.0633,1.18815 -0.25481,0.60639 -0.86529,0.77193 -0.11671,0.0316 -0.3548,0.0866 -0.23585,0.0543 -0.352561,0.086 -0.105487,0.0286 -0.31627,0.0954 -0.208538,0.0662 -0.314025,0.0948 -0.05611,0.0152 -0.07132,-0.0409 -0.06633,-0.24463 -0.182268,-0.74327 -0.113688,-0.49924 -0.180632,-0.74613 -0.07059,-0.26035 -0.230349,-0.77842 -0.159754,-0.51808 -0.23035,-0.77843 -0.01278,-0.0471 0.04557,-0.063 0.08304,-0.0225 0.247492,-0.0647 0.166694,-0.0428 0.249736,-0.0653 0.07631,-0.0207 0.232808,-0.0655 0.156499,-0.0448 0.237298,-0.0668 0.778801,-0.21118 1.240071,-0.0206 0.33103,0.13673 0.57816,0.45281 0.23147,0.29383 0.33006,0.65742 z m -0.54988,0.1491 q -0.13145,-0.48478 -0.49028,-0.71517 -0.37309,-0.23856 -0.853388,-0.10832 -0.397257,0.10772 -0.322165,0.0825 -0.258943,0.0847 -0.236425,0.16771 0.04686,0.17282 0.131604,0.52089 0.08638,0.34522 0.133241,0.51803 0.04625,0.17058 0.145489,0.5099 0.101482,0.33871 0.147734,0.50929 0.02313,0.0853 0.296104,0.0257 -0.03652,0.007 0.327076,-0.0911 0.2581,-0.07 0.39612,-0.16523 0.17027,-0.11845 0.27135,-0.34103 0.18804,-0.41722 0.0535,-0.91323 z m 3.02266,-0.25201 q 0.035,0.16848 -0.0988,0.25571 -0.0903,0.0568 -1.38133,0.42753 0.0713,0.19419 0.29189,0.29555 0.21008,0.0964 0.41954,0.0529 0.35972,-0.0748 0.61192,-0.36959 0.0303,-0.0372 0.0605,-0.0743 0.0182,-0.004 0.0237,-1.9e-4 0.008,0.003 0.11967,0.14137 0.11142,0.13596 0.11379,0.14735 0.003,0.0137 -0.0255,0.0599 -0.26078,0.42479 -0.78441,0.53374 -0.52819,0.10989 -0.90774,-0.13893 -0.38003,-0.25109 -0.48945,-0.777 -0.0976,-0.469 0.13048,-0.87986 0.24114,-0.42783 0.70103,-0.52352 0.42802,-0.0891 0.78025,0.16545 0.3435,0.24682 0.43445,0.68394 z m -0.57075,-0.0261 q -0.0393,-0.18897 -0.21989,-0.30341 -0.1783,-0.11492 -0.36499,-0.0761 -0.20945,0.0436 -0.33832,0.24616 -0.12659,0.2021 -0.083,0.41156 0.01,0.0478 0.0919,0.0308 0.33695,-0.0701 0.79174,-0.23599 0.12826,-0.0457 0.12257,-0.073 z m 2.10384,0.31562 q 0.0567,0.34182 -0.18202,0.59359 -0.21654,0.22922 -0.57212,0.28822 -0.13765,0.0228 -0.15714,0.019 -0.0421,-0.0119 -0.0577,-0.10594 -0.008,-0.0505 -0.0389,-0.14912 -0.0282,-0.099 -0.0362,-0.14721 -0.005,-0.0298 0.0348,-0.0459 0.0287,-0.0118 0.0849,-0.0141 0.0723,-0.005 0.07,-0.005 0.43358,-0.072 0.38943,-0.33806 -0.0209,-0.12617 -0.22886,-0.20011 -0.33787,-0.11837 -0.39022,-0.14976 -0.21743,-0.13128 -0.26121,-0.3951 -0.0571,-0.34411 0.17016,-0.57983 0.20545,-0.21088 0.56332,-0.27026 0.0321,-0.005 0.0508,0.0222 0.021,0.0272 0.0882,0.1763 0.0695,0.14877 0.0748,0.18088 0.004,0.0252 -0.0383,0.0393 -0.1434,0.045 -0.28947,0.0881 -0.16865,0.0775 -0.14466,0.22201 0.0171,0.10323 0.22046,0.17793 0.30079,0.10802 0.38562,0.16466 0.2178,0.14773 0.26424,0.4276 z m 0.66941,-2.17702 q 0.039,0.28336 -0.27664,0.32677 -0.32023,0.044 -0.3592,-0.23932 -0.0174,-0.12671 0.0702,-0.22327 0.0814,-0.091 0.21039,-0.10874 0.12901,-0.0177 0.23225,0.0502 0.10554,0.0676 0.12297,0.19435 z m 0.0697,0.62654 q 0.0244,0.17738 0.0508,0.53994 0.0284,0.35993 0.0531,0.53962 0.0231,0.16818 0.0763,0.50358 0.0529,0.33309 0.0757,0.49896 0.007,0.0484 -0.0348,0.0541 l -0.44923,0.0618 q -0.0484,0.007 -0.0614,-0.0878 -0.0219,-0.15896 -0.0587,-0.47783 -0.0348,-0.32149 -0.057,-0.48275 -0.0247,-0.17969 -0.10179,-0.53528 -0.0748,-0.3559 -0.0995,-0.53559 -0.005,-0.0392 0.043,-0.0458 0.0415,-0.006 0.12829,-0.006 0.0891,-5.2e-4 0.1329,-0.007 0.0438,-0.006 0.12742,-0.0293 0.086,-0.0236 0.12973,-0.0296 0.0392,-0.005 0.0452,0.0384 z m 2.58256,-0.28993 q 0.0266,0.27778 0.0753,0.83611 0.0485,0.55601 0.0751,0.83379 0.0527,0.55094 -0.15836,0.83512 -0.22111,0.30148 -0.7651,0.35354 -0.52547,0.0503 -0.86861,-0.11777 -0.054,-0.0275 -0.0562,-0.0507 0.002,0.0255 0.0367,-0.34925 0.003,-0.04 0.0286,-0.0425 0.0116,-10e-4 0.0312,0.009 0.36628,0.16585 0.71583,0.1324 0.22917,-0.0219 0.36989,-0.13819 0.16253,-0.13236 0.14149,-0.35227 -0.005,-0.0486 -0.0301,-0.21671 -0.22704,0.3371 -0.62288,0.37498 -0.42825,0.041 -0.73318,-0.24053 -0.29225,-0.27105 -0.33368,-0.70393 -0.0421,-0.43982 0.18308,-0.77207 0.23938,-0.35463 0.67226,-0.39605 0.38195,-0.0366 0.63463,0.23594 0.0417,0.0451 0.0579,0.0435 0.0185,-0.002 0.0145,-0.0434 -0.003,-0.0301 -0.0137,-0.0945 -0.011,-0.0667 -0.0142,-0.0991 -0.0133,-0.1389 0.0145,-0.14155 0.0232,-0.002 0.25422,0.02 0.23084,0.02 0.25256,0.0272 0.0335,0.008 0.0382,0.0571 z m -0.4643,1.00689 q -0.0248,-0.25926 -0.18329,-0.42631 -0.17393,-0.18192 -0.42625,-0.15777 -0.25001,0.0239 -0.38605,0.23784 -0.12393,0.19408 -0.0993,0.45103 0.0241,0.25232 0.18517,0.42146 0.17415,0.18423 0.42184,0.16053 0.24538,-0.0235 0.38374,-0.23763 0.12833,-0.19683 0.10418,-0.44915 z m 3.14516,1.00835 q 0.002,0.0511 -0.0448,0.0527 -0.0767,0.003 -0.23017,0.005 -0.15115,0.003 -0.22784,0.005 -0.0418,0.001 -0.0441,-0.066 -0.004,-0.11388 -0.004,-0.34653 -6.9e-4,-0.23265 -0.005,-0.34886 -0.003,-0.093 -0.0114,-0.2765 -0.008,-0.18586 -0.0115,-0.27882 -0.009,-0.26496 -0.089,-0.37167 -0.0973,-0.12709 -0.34826,-0.11882 -0.11621,0.004 -0.31877,0.1408 -0.21396,0.14433 -0.21044,0.25124 l 0.046,1.39451 q 0.002,0.0581 -0.0422,0.0596 -0.0744,0.002 -0.2232,0.005 -0.14882,0.003 -0.22319,0.005 -0.0488,0.002 -0.0506,-0.0519 -0.006,-0.18361 -0.0135,-0.55098 -0.005,-0.36745 -0.0112,-0.55338 -0.0163,-0.49505 -0.13469,-0.90996 -0.008,-0.0207 -0.008,-0.03 -7.7e-4,-0.0232 0.0291,-0.0335 0.0162,-0.003 0.26358,-0.0506 0.24963,-0.0501 0.26125,-0.0505 0.0139,-4.6e-4 0.0198,0.0366 0.0164,0.14372 0.063,0.28876 0.11771,-0.0993 0.3106,-0.24756 0.23913,-0.15679 0.4669,-0.16429 0.43695,-0.0144 0.60567,0.23365 0.12466,0.18203 0.13836,0.59806 0.002,0.0721 0.003,0.22095 0.003,0.14882 0.005,0.2232 0.005,0.15572 0.02,0.46468 0.0148,0.30896 0.02,0.46468 z"
       id="text1"
       style="font-size:4.7625px;font-family:'Berlin Sans FB';-inkscape-font-specification:'Berlin Sans FB, Normal';fill:none;stroke:#33323d;stroke-width:0.119089"
       transform="rotate(9.5542804,68.774414,183.62231)"
       aria-label="LangheWebDesign" />
    <path
       id="path2"
       style="fill:none;stroke:#33323d;stroke-width:0.119089"
       transform="rotate(165.99425)"
       d="m -48.30921,-147.04721 a 22.217676,10.60463 0 0 1 -22.217676,10.60463 22.217676,10.60463 0 0 1 -22.217676,-10.60463 22.217676,10.60463 0 0 1 22.217676,-10.60463 22.217676,10.60463 0 0 1 22.217676,10.60463 z" />
  </g>
</svg>
